# xmcd
#
# Track frame offsets: 
#        150
#        20462
#        42965
#
# Disc length: 854 seconds
#
# Revision: 2
# Processed by: cddbd v1.5.2PL0 Copyright (c) Steve Scherf et al.
# Submitted via: ExactAudioCopy v0.95a3
#
DISCID=1b035403
DTITLE=Firestorm - The Outsiders
DYEAR=2006
DGENRE=Heavy Metal
TTITLE0=Down
TTITLE1=The Outsiders
TTITLE2=My Hate Keeps Me Alive
EXTD=
EXTT0=
EXTT1=
EXTT2=
PLAYORDER=
